# xmcd
# 
# Track frame offsets:
#     150
#     21187
#     38006
# 
# Disc length: 790
# 
# Revision: 0
# Processed by: cddbd v1.5.2PL0 Copyright (c) Steve Scherf et al.
# Submitted via: fre:ac v1.0.31
# 
DISCID=19031403
DTITLE=Elvis Presley - An American Trilogy
DYEAR=1998
DGENRE=JPop
TTITLE0=An American Trilogy
TTITLE1=The First Time Ever I Saw Your Face
TTITLE2=An American Trilogy - Aloha Version
EXTD=YEAR: 1998
EXTT0=
EXTT1=
EXTT2=
PLAYORDER=
